HIERARCHY
ROOT hips
{
	OFFSET -0.003675 0.299928 -0.021708
	CHANNELS 6 Xposition Yposition Zposition Xrotation Yrotation Zrotation
	JOINT LowerBack
	{
		OFFSET 0.000919 0.177588 0.009275
		CHANNELS 3 Xrotation Yrotation Zrotation
		JOINT spine
		{
			OFFSET 0.000919 0.177588 0.009275
			CHANNELS 3 Xrotation Yrotation Zrotation
			JOINT chest
			{
				OFFSET 0.000456 0.100015 0.004638
				CHANNELS 3 Xrotation Yrotation Zrotation
				JOINT neck
				{
					OFFSET 0.000456 0.100015 0.004638
					CHANNELS 3 Xrotation Yrotation Zrotation
					JOINT head
					{
						OFFSET 0.000924 0.155147 0.009274
						CHANNELS 6 Xposition Yposition Zposition Xrotation Yrotation Zrotation
						End Site
						{
							OFFSET 0.000000 0.153400 0.000000
						}
					}
				}
				JOINT shoulder.L
				{
					OFFSET 0.019937 0.078966 0.057518
					CHANNELS 6 Xposition Yposition Zposition Yrotation Xrotation Zrotation
					JOINT upper_arm.L
					{
						OFFSET 0.177024 -0.020465 -0.095062
						CHANNELS 6 Xposition Yposition Zposition Xrotation Yrotation Zrotation
						JOINT forearm.L
						{
							OFFSET 0.247100 -0.135500 -0.061800
							CHANNELS 3 Xrotation Yrotation Zrotation
							JOINT hand.L
							{
								OFFSET 0.217000 -0.143000 0.039300
								CHANNELS 3 Xrotation Yrotation Zrotation
								JOINT palm.01.L
								{
									OFFSET 0.021770 -0.038291 0.012954
									CHANNELS 6 Xposition Yposition Zposition Yrotation Xrotation Zrotation
									JOINT f_index.01.L
									{
										OFFSET 0.053215 -0.044137 0.008236
										CHANNELS 3 Xrotation Yrotation Zrotation
										JOINT f_index.02.L
										{
											OFFSET 0.036108 -0.024723 -0.010656
											CHANNELS 3 Xrotation Yrotation Zrotation
											JOINT f_index.03.L
											{
												OFFSET 0.021342 -0.014948 -0.010846
												CHANNELS 3 Xrotation Yrotation Zrotation
												End Site
												{
													OFFSET 0.015600 -0.009860 -0.013421
												}
											}
										}
									}
									JOINT thumb.01.L
									{
										OFFSET -0.009090 -0.002348 -0.024223
										CHANNELS 6 Xposition Yposition Zposition Xrotation Yrotation Zrotation
										JOINT thumb.02.L
										{
											OFFSET 0.019713 -0.035076 -0.011120
											CHANNELS 3 Xrotation Yrotation Zrotation
											JOINT thumb.03.L
											{
												OFFSET 0.024877 -0.021748 -0.005176
												CHANNELS 3 Xrotation Yrotation Zrotation
												End Site
												{
													OFFSET 0.016125 -0.013029 -0.001569
												}
											}
										}
									}
								}
								JOINT palm.02.L
								{
									OFFSET 0.032823 -0.025104 0.012281
									CHANNELS 6 Xposition Yposition Zposition Yrotation Xrotation Zrotation
									JOINT f_middle.01.L
									{
										OFFSET 0.055723 -0.038469 0.008037
										CHANNELS 3 Xrotation Yrotation Zrotation
										JOINT f_middle.02.L
										{
											OFFSET 0.038167 -0.027473 -0.015582
											CHANNELS 3 Xrotation Yrotation Zrotation
											JOINT f_middle.03.L
											{
												OFFSET 0.021707 -0.016587 -0.017037
												CHANNELS 3 Xrotation Yrotation Zrotation
												End Site
												{
													OFFSET 0.014112 -0.010584 -0.014294
												}
											}
										}
									}
								}
								JOINT palm.03.L
								{
									OFFSET 0.039230 -0.011402 0.008390
									CHANNELS 6 Xposition Yposition Zposition Yrotation Xrotation Zrotation
									JOINT f_ring.01.L
									{
										OFFSET 0.061796 -0.031470 0.007910
										CHANNELS 3 Xrotation Yrotation Zrotation
										JOINT f_ring.02.L
										{
											OFFSET 0.033092 -0.023401 -0.019127
											CHANNELS 3 Xrotation Yrotation Zrotation
											JOINT f_ring.03.L
											{
												OFFSET 0.021392 -0.015362 -0.017824
												CHANNELS 3 Xrotation Yrotation Zrotation
												End Site
												{
													OFFSET 0.008670 -0.007297 -0.014686
												}
											}
										}
									}
								}
								JOINT palm.04.L
								{
									OFFSET 0.043417 0.002450 0.002889
									CHANNELS 6 Xposition Yposition Zposition Yrotation Xrotation Zrotation
									JOINT f_pinky.01.L
									{
										OFFSET 0.069986 -0.026156 0.003627
										CHANNELS 3 Xrotation Yrotation Zrotation
										JOINT f_pinky.02.L
										{
											OFFSET 0.018520 -0.012813 -0.016429
											CHANNELS 3 Xrotation Yrotation Zrotation
											JOINT f_pinky.03.L
											{
												OFFSET 0.013822 -0.009796 -0.014947
												CHANNELS 3 Xrotation Yrotation Zrotation
												End Site
												{
													OFFSET 0.007238 -0.006103 -0.011657
												}
											}
										}
									}
								}
							}
						}
					}
				}
				JOINT shoulder.R
				{
					OFFSET -0.016662 0.078957 0.057696
					CHANNELS 6 Xposition Yposition Zposition Yrotation Xrotation Zrotation
					JOINT upper_arm.R
					{
						OFFSET -0.176972 -0.020537 -0.095144
						CHANNELS 6 Xposition Yposition Zposition Xrotation Yrotation Zrotation
						JOINT forearm.R
						{
							OFFSET -0.247100 -0.135500 -0.061800
							CHANNELS 3 Xrotation Yrotation Zrotation
							JOINT hand.R
							{
								OFFSET -0.217000 -0.143000 0.039300
								CHANNELS 3 Xrotation Yrotation Zrotation
								JOINT palm.01.R
								{
									OFFSET -0.021773 -0.038278 0.012988
									CHANNELS 6 Xposition Yposition Zposition Yrotation Xrotation Zrotation
									JOINT f_index.01.R
									{
										OFFSET -0.053212 -0.044139 0.008249
										CHANNELS 3 Xrotation Yrotation Zrotation
										JOINT f_index.02.R
										{
											OFFSET -0.036049 -0.024835 -0.010634
											CHANNELS 3 Xrotation Yrotation Zrotation
											JOINT f_index.03.R
											{
												OFFSET -0.021371 -0.014881 -0.010866
												CHANNELS 3 Xrotation Yrotation Zrotation
												End Site
												{
													OFFSET -0.015584 -0.009883 -0.013422
												}
											}
										}
									}
									JOINT thumb.01.R
									{
										OFFSET 0.009113 -0.002381 -0.024211
										CHANNELS 6 Xposition Yposition Zposition Xrotation Yrotation Zrotation
										JOINT thumb.02.R
										{
											OFFSET -0.019694 -0.035097 -0.011088
											CHANNELS 3 Xrotation Yrotation Zrotation
											JOINT thumb.03.R
											{
												OFFSET -0.024867 -0.021762 -0.005168
												CHANNELS 3 Xrotation Yrotation Zrotation
												End Site
												{
													OFFSET -0.016120 -0.013036 -0.001565
												}
											}
										}
									}
								}
								JOINT palm.02.R
								{
									OFFSET -0.032828 -0.025095 0.012286
									CHANNELS 6 Xposition Yposition Zposition Yrotation Xrotation Zrotation
									JOINT f_middle.01.R
									{
										OFFSET -0.055721 -0.038472 0.008040
										CHANNELS 3 Xrotation Yrotation Zrotation
										JOINT f_middle.02.R
										{
											OFFSET -0.038101 -0.027593 -0.015557
											CHANNELS 3 Xrotation Yrotation Zrotation
											JOINT f_middle.03.R
											{
												OFFSET -0.021730 -0.016530 -0.017054
												CHANNELS 3 Xrotation Yrotation Zrotation
												End Site
												{
													OFFSET -0.014096 -0.010608 -0.014293
												}
											}
										}
									}
								}
								JOINT palm.03.R
								{
									OFFSET -0.039192 -0.011488 0.008390
									CHANNELS 6 Xposition Yposition Zposition Yrotation Xrotation Zrotation
									JOINT f_ring.01.R
									{
										OFFSET -0.061839 -0.031387 0.007876
										CHANNELS 3 Xrotation Yrotation Zrotation
										JOINT f_ring.02.R
										{
											OFFSET -0.033068 -0.023437 -0.019125
											CHANNELS 3 Xrotation Yrotation Zrotation
											JOINT f_ring.03.R
											{
												OFFSET -0.021371 -0.015393 -0.017822
												CHANNELS 3 Xrotation Yrotation Zrotation
												End Site
												{
													OFFSET -0.008654 -0.007321 -0.014684
												}
											}
										}
									}
								}
								JOINT palm.04.R
								{
									OFFSET -0.043421 0.002443 0.002845
									CHANNELS 6 Xposition Yposition Zposition Yrotation Xrotation Zrotation
									JOINT f_pinky.01.R
									{
										OFFSET -0.069983 -0.026169 0.003599
										CHANNELS 3 Xrotation Yrotation Zrotation
										JOINT f_pinky.02.R
										{
											OFFSET -0.018501 -0.012842 -0.016428
											CHANNELS 3 Xrotation Yrotation Zrotation
											JOINT f_pinky.03.R
											{
												OFFSET -0.013806 -0.009821 -0.014946
												CHANNELS 3 Xrotation Yrotation Zrotation
												End Site
												{
													OFFSET -0.007226 -0.006121 -0.011655
												}
											}
										}
									}
								}
							}
						}
					}
				}
			}
		}
	}
	JOINT pelvis.L
	{
		OFFSET 0.000000 0.000000 0.000000
		CHANNELS 6 Xposition Yposition Zposition Xrotation Yrotation Zrotation
		JOINT thigh.L
		{
			OFFSET 0.101675 0.001054 -0.000000
			CHANNELS 3 Xrotation Yrotation Zrotation
			JOINT shin.L
			{
				OFFSET 0.000000 -0.534800 0.041000
				CHANNELS 3 Xrotation Yrotation Zrotation
				JOINT foot.L
				{
					OFFSET 0.000000 -0.452000 -0.044800
					CHANNELS 3 Xrotation Yrotation Zrotation
					JOINT toe.L
					{
						OFFSET -0.000000 -0.068500 0.109600
						CHANNELS 3 Xrotation Yrotation Zrotation
						End Site
						{
							OFFSET -0.000000 0.000000 0.067200
						}
					}
				}
				JOINT heel.L
				{
					OFFSET 0.000000 -0.452000 -0.044800
					CHANNELS 3 Xrotation Yrotation Zrotation
					JOINT heel.02.L
					{
						OFFSET -0.038000 -0.085200 0.016200
						CHANNELS 6 Xposition Yposition Zposition Xrotation Yrotation Zrotation
						End Site
						{
							OFFSET 0.080000 -0.000000 0.000000
						}
					}
				}
			}
		}
	}
	JOINT pelvis.R
	{
		OFFSET 0.000000 0.000000 0.000000
		CHANNELS 6 Xposition Yposition Zposition Xrotation Yrotation Zrotation
		JOINT thigh.R
		{
			OFFSET -0.094325 0.001054 0.000000
			CHANNELS 3 Xrotation Yrotation Zrotation
			JOINT shin.R
			{
				OFFSET 0.000000 -0.534800 0.041000
				CHANNELS 3 Xrotation Yrotation Zrotation
				JOINT foot.R
				{
					OFFSET 0.000000 -0.452000 -0.044800
					CHANNELS 3 Xrotation Yrotation Zrotation
					JOINT toe.R
					{
						OFFSET -0.000000 -0.068500 0.109600
						CHANNELS 3 Xrotation Yrotation Zrotation
						End Site
						{
							OFFSET -0.000000 0.000000 0.067200
						}
					}
				}
				JOINT heel.R
				{
					OFFSET 0.000000 -0.452000 -0.044800
					CHANNELS 3 Xrotation Yrotation Zrotation
					JOINT heel.02.R
					{
						OFFSET 0.038000 -0.085200 0.016200
						CHANNELS 6 Xposition Yposition Zposition Xrotation Yrotation Zrotation
						End Site
						{
							OFFSET -0.080000 0.000000 -0.000000
						}
					}
				}
			}
		}
	}
}
MOTION
Frames: 4
Frame Time: 0.041667
-0.003675 0.299928 -0.021708 0.000000 -0.000000 0.000000 -0.000001 0.000000 0.000000 -0.000000 0.000000 0.000000 -0.000000 0.000000 0.000000 -0.000000 -0.000000 -0.000000 0.000924 0.155147 0.009274 -0.000001 -0.000000 -0.000000 0.019937 0.078966 0.057518 0.000001 -0.000002 -0.000004 0.177024 -0.020465 -0.095062 -0.000003 -0.000002 0.000015 -0.000010 -0.000004 -0.000009 -0.000001 -0.000001 0.000001 0.021770 -0.038291 0.012954 0.000001 0.000001 0.000005 -0.000000 -0.000001 -0.000000 -0.000002 -0.000003 0.000001 0.000000 0.000004 -0.000000 -0.009090 -0.002348 -0.024223 0.000001 0.000001 -0.000001 0.000001 0.000001 0.000001 -0.000000 0.000001 0.000004 0.032823 -0.025104 0.012281 0.000000 -0.000000 0.000000 -0.000000 0.000003 0.000000 -0.000001 -0.000003 0.000001 -0.000003 -0.000002 0.000002 0.039230 -0.011402 0.008390 0.000000 -0.000001 0.000004 0.000000 0.000001 -0.000002 -0.000000 0.000003 -0.000001 0.000003 0.000000 0.000003 0.043417 0.002450 0.002889 0.000000 0.000001 -0.000002 -0.000001 -0.000003 -0.000002 -0.000001 0.000000 0.000001 -0.000001 0.000001 0.000001 -0.016662 0.078956 0.057696 -0.000000 0.000004 0.000012 -0.176972 -0.020537 -0.095144 -0.000001 -0.000002 -0.000007 -0.000006 0.000005 -0.000016 -0.000000 0.000001 0.000005 -0.021773 -0.038278 0.012988 -0.000001 -0.000003 -0.000002 0.000000 0.000001 0.000001 0.000000 0.000000 0.000001 0.000001 0.000000 0.000004 0.009113 -0.002381 -0.024212 0.000002 -0.000002 0.000004 -0.000000 0.000000 0.000002 0.000001 0.000000 -0.000003 -0.032828 -0.025095 0.012286 0.000000 -0.000001 -0.000003 0.000000 0.000001 0.000001 0.000000 0.000005 -0.000002 -0.000001 0.000001 -0.000002 -0.039192 -0.011488 0.008390 -0.000000 0.000001 0.000001 -0.000002 0.000003 -0.000002 0.000001 -0.000004 0.000002 -0.000003 0.000006 -0.000002 -0.043421 0.002443 0.002844 -0.000000 -0.000001 -0.000001 -0.000005 0.000005 -0.000001 -0.000000 -0.000002 -0.000002 -0.000000 -0.000001 -0.000000 -0.000000 0.000000 -0.000000 -0.000001 -0.000000 0.000001 0.000009 -0.000202 0.000014 -0.000026 0.000202 -0.000015 0.000000 -0.000000 -0.000000 0.000002 -0.000000 -0.000000 0.000000 0.000000 -0.000000 -0.038000 -0.085200 0.016200 0.000000 0.000000 0.000000 0.000000 -0.000000 -0.000000 -0.000001 0.000000 -0.000004 0.000008 -0.000013 0.000005 -0.000012 0.000013 -0.000001 -0.000003 -0.000000 -0.000000 0.000000 -0.000000 -0.000000 0.000002 -0.000000 -0.000000 0.038000 -0.085200 0.016200 0.000002 -0.000000 0.000000 
0.443378 -0.131924 -2.488143 -7.296272 7.617354 -3.128992 0.000001 0.000000 0.000000 -0.000001 -0.000001 0.000001 -0.000000 0.000000 0.000000 -0.000000 -0.000000 0.000000 0.000924 0.155147 0.009274 -0.905271 -0.467983 0.490097 0.019937 0.078966 0.057518 -14.447985 30.150173 38.952900 0.177025 -0.020465 -0.095062 -94.316047 -48.756264 -107.420605 11.024235 8.224583 -1.651610 -0.000000 0.000001 0.000005 0.021771 -0.038291 0.012954 0.000001 0.000000 -0.000004 -0.000002 -0.000001 0.000003 -0.000002 -0.000002 0.000008 -0.000001 0.000002 -0.000003 -0.009090 -0.002349 -0.024223 -0.000000 0.000001 0.000001 0.000002 -0.000000 -0.000002 -0.000000 -0.000000 0.000003 0.032823 -0.025104 0.012281 0.000000 0.000002 0.000005 0.000001 0.000001 -0.000005 -0.000001 0.000001 0.000009 0.000000 0.000001 0.000001 0.039230 -0.011402 0.008390 0.000002 -0.000001 0.000001 0.000002 0.000001 -0.000000 -0.000000 0.000005 0.000005 -0.000001 -0.000003 0.000003 0.043418 0.002450 0.002889 0.000000 0.000001 -0.000003 -0.000000 -0.000003 -0.000002 -0.000000 0.000000 0.000006 0.000001 -0.000005 -0.000001 -0.016662 0.078956 0.057696 36.225565 28.403753 -31.933101 -0.176972 -0.020537 -0.095145 -61.493259 36.256386 106.742046 -22.190742 -16.232641 -35.635877 -0.000001 -0.000001 0.000002 -0.021773 -0.038278 0.012988 -0.000001 -0.000002 -0.000007 -0.000002 0.000002 0.000007 -0.000006 0.000001 -0.000004 -0.000000 0.000000 0.000006 0.009113 -0.002381 -0.024211 -0.000000 -0.000003 0.000000 -0.000001 -0.000002 0.000000 0.000001 0.000000 -0.000001 -0.032828 -0.025095 0.012286 0.000003 -0.000000 -0.000001 0.000001 0.000002 0.000004 -0.000001 0.000006 0.000003 -0.000001 0.000003 -0.000006 -0.039192 -0.011488 0.008390 -0.000001 0.000001 -0.000004 0.000000 0.000003 0.000000 -0.000000 -0.000006 -0.000000 0.000001 0.000002 -0.000004 -0.043421 0.002442 0.002845 0.000001 0.000000 -0.000005 -0.000004 0.000003 -0.000001 -0.000001 -0.000004 -0.000003 -0.000002 0.000000 -0.000002 0.000000 0.000000 -0.000000 2.314907 2.335888 -0.952189 18.990897 0.331159 2.627167 21.112374 -0.474366 4.794680 -0.000005 0.000000 -0.000000 -0.000001 0.000000 0.000000 -0.000003 0.000000 -0.000000 -0.038000 -0.085200 0.016200 0.000004 -0.000000 0.000000 0.000000 0.000000 -0.000000 2.254314 -0.025862 0.053317 18.851602 -0.095584 0.598136 24.309634 -0.570900 5.771609 0.000000 -0.000000 0.000000 0.000002 -0.000000 0.000000 0.000002 -0.000000 0.000000 0.038000 -0.085200 0.016200 -0.000001 -0.000000 -0.000000 
0.444433 -0.135502 -2.488431 -7.215606 8.971284 -3.407337 0.000001 0.000001 -0.000000 0.000000 -0.000000 -0.000000 -0.000000 -0.000000 -0.000001 -0.000001 -0.000001 -0.000001 0.000924 0.155148 0.009274 -1.140373 -0.497286 1.726448 0.019937 0.078966 0.057518 -15.416186 30.119956 38.831145 0.177024 -0.020465 -0.095062 -95.587883 -50.041589 -107.458212 12.399634 6.689532 -3.046072 -0.000001 -0.000001 -0.000000 0.021770 -0.038291 0.012954 -0.000000 -0.000000 0.000005 -0.000003 -0.000002 0.000001 0.000001 0.000003 0.000005 0.000004 0.000003 0.000002 -0.009090 -0.002348 -0.024223 -0.000002 -0.000002 0.000003 -0.000000 0.000000 -0.000000 0.000001 -0.000001 -0.000001 0.032823 -0.025104 0.012281 -0.000001 0.000003 0.000007 0.000000 0.000002 -0.000005 -0.000004 -0.000001 0.000005 -0.000002 -0.000003 0.000000 0.039230 -0.011402 0.008390 -0.000000 0.000001 0.000003 0.000001 0.000000 0.000001 -0.000000 0.000003 0.000003 0.000002 -0.000003 -0.000000 0.043417 0.002450 0.002889 -0.000001 0.000001 0.000002 0.000000 -0.000006 0.000002 -0.000004 -0.000003 0.000002 -0.000003 0.000000 0.000004 -0.016662 0.078957 0.057696 35.506762 28.434071 -32.012089 -0.176972 -0.020537 -0.095144 -61.847370 35.658662 107.166672 -22.875734 -16.435891 -36.287299 -0.000000 0.000001 0.000002 -0.021773 -0.038278 0.012988 -0.000003 0.000000 0.000005 -0.000000 0.000004 -0.000006 -0.000001 -0.000002 -0.000003 0.000004 -0.000002 0.000003 0.009113 -0.002381 -0.024212 0.000002 -0.000001 -0.000001 0.000000 -0.000001 0.000000 0.000000 0.000001 -0.000001 -0.032828 -0.025095 0.012286 0.000001 0.000001 0.000001 -0.000001 0.000003 -0.000003 0.000003 -0.000003 0.000001 0.000001 0.000007 -0.000000 -0.039191 -0.011488 0.008390 -0.000001 0.000003 0.000007 0.000000 0.000000 -0.000003 0.000002 0.000000 0.000007 0.000001 -0.000001 -0.000003 -0.043421 0.002443 0.002845 -0.000001 -0.000000 0.000004 -0.000003 0.000003 -0.000002 -0.000004 -0.000005 -0.000004 -0.000001 -0.000002 0.000002 -0.000000 0.000000 -0.000000 2.316274 2.580883 -0.477348 17.430742 0.350989 3.061754 24.097985 -0.524857 5.306059 -0.000002 -0.000000 -0.000000 -0.000001 0.000001 -0.000000 0.000003 -0.000000 -0.000001 -0.038000 -0.085201 0.016199 -0.000001 0.000000 -0.000000 -0.000000 0.000000 -0.000000 2.254621 -0.031646 0.504116 16.732901 -0.083422 0.492994 26.722654 -0.673483 6.813005 -0.000003 -0.000000 0.000000 0.000003 -0.000000 -0.000000 0.000002 -0.000000 0.000000 0.038000 -0.085200 0.016200 -0.000002 -0.000000 -0.000000 
0.446938 -0.137286 -2.488857 -7.087702 9.843108 -3.532198 -0.000000 0.000000 0.000000 -0.000001 0.000001 -0.000000 -0.000001 -0.000000 -0.000000 0.000000 -0.000000 -0.000000 0.000924 0.155148 0.009274 -1.101668 -0.492915 1.844962 0.019937 0.078966 0.057518 -16.321686 30.148868 38.980299 0.177024 -0.020466 -0.095062 -95.513290 -50.023233 -107.420318 13.141777 6.897947 -3.571420 -0.000001 -0.000000 -0.000001 0.021771 -0.038291 0.012954 0.000001 0.000002 0.000001 0.000000 -0.000000 0.000001 0.000001 0.000001 0.000009 -0.000002 0.000003 -0.000002 -0.009090 -0.002348 -0.024224 0.000001 -0.000001 -0.000001 0.000003 0.000002 0.000003 -0.000001 -0.000001 -0.000004 0.032823 -0.025104 0.012281 0.000000 -0.000000 0.000005 0.000000 0.000003 -0.000003 -0.000002 0.000001 0.000003 0.000003 0.000001 -0.000003 0.039230 -0.011402 0.008390 0.000001 -0.000000 0.000004 0.000000 0.000003 0.000001 0.000002 0.000005 0.000003 -0.000001 -0.000006 0.000005 0.043418 0.002449 0.002889 -0.000001 0.000002 -0.000002 -0.000001 -0.000002 0.000003 -0.000001 0.000003 -0.000000 0.000001 0.000000 0.000002 -0.016662 0.078957 0.057696 34.669282 28.451235 -32.049201 -0.176972 -0.020537 -0.095144 -62.837945 36.917562 106.316559 -21.993144 -17.282247 -34.939085 0.000001 -0.000000 -0.000003 -0.021772 -0.038278 0.012988 -0.000000 -0.000001 -0.000002 -0.000001 0.000003 -0.000001 -0.000000 0.000001 -0.000006 -0.000005 0.000000 0.000003 0.009113 -0.002381 -0.024212 0.000001 -0.000000 -0.000001 0.000002 -0.000004 0.000002 0.000001 0.000000 -0.000003 -0.032828 -0.025095 0.012286 -0.000001 -0.000000 0.000001 -0.000000 0.000002 -0.000001 -0.000000 0.000003 0.000001 -0.000005 0.000006 -0.000005 -0.039192 -0.011488 0.008390 -0.000001 0.000001 0.000003 0.000000 0.000004 -0.000005 0.000002 -0.000003 -0.000002 0.000000 0.000004 -0.000003 -0.043420 0.002443 0.002845 -0.000001 0.000000 0.000000 -0.000001 -0.000001 -0.000002 -0.000001 -0.000002 -0.000002 -0.000000 0.000006 0.000002 0.000000 0.000000 0.000000 2.316679 2.614331 0.713167 18.184655 0.311471 2.454593 24.089314 -0.543832 5.498352 -0.000002 0.000000 0.000000 0.000002 0.000001 0.000000 0.000000 -0.000000 -0.000000 -0.038000 -0.085200 0.016200 -0.000000 -0.000001 0.000000 0.000000 0.000000 0.000000 2.254781 -0.047017 1.702261 16.071947 -0.149924 -0.453010 28.026918 -0.749825 7.589493 0.000000 0.000001 -0.000000 0.000002 0.000000 0.000000 0.000005 0.000001 -0.000000 0.038000 -0.085200 0.016200 -0.000005 -0.000000 -0.000001 
